<?xml version="1.0" standalone="no"?>
<!DOCTYPE svg PUBLIC "-//W3C//DTD SVG 20010904//EN"
 "http://www.w3.org/TR/2001/REC-SVG-20010904/DTD/svg10.dtd">
<svg version="1.0" xmlns="http://www.w3.org/2000/svg"
 width="938.000000pt" height="385.000000pt" viewBox="0 0 938.000000 385.000000"
 preserveAspectRatio="xMidYMid meet">

<g transform="translate(0.000000,385.000000) scale(0.100000,-0.100000)"
fill="#008753" stroke="none">
<path d="M3103 3279 c-17 -5 -41 -21 -52 -35 -19 -25 -21 -40 -21 -195 l0
-169 -301 0 c-287 0 -302 -1 -330 -20 -16 -12 -33 -36 -39 -58 -6 -24 -10
-301 -10 -779 l0 -743 -62 0 -63 0 -27 68 c-124 305 -501 411 -772 218 -177
-127 -254 -369 -183 -574 52 -149 170 -267 320 -319 135 -48 311 -29 428 46
l46 29 5 -349 4 -349 24 -25 24 -25 289 2 290 3 19 26 c17 23 20 50 25 252 l6
227 534 0 533 0 0 -22 c0 -13 -7 -99 -15 -193 -8 -93 -15 -173 -15 -177 0 -5
-38 -8 -83 -8 -97 0 -117 -13 -117 -73 l0 -37 485 0 485 0 0 38 c0 59 -21 72
-118 72 l-81 0 -5 52 c-9 78 -26 289 -26 321 l0 27 240 0 240 0 0 -164 c0 -99
4 -167 10 -171 28 -17 1 -25 -85 -25 l-95 0 0 -50 c0 -41 5 -56 25 -75 l24
-25 1336 0 c1309 0 1335 0 1354 19 21 21 35 75 29 108 -3 16 -15 18 -97 21
-84 2 -92 4 -84 20 4 9 9 137 11 285 l3 267 233 0 c251 0 284 5 313 48 17 25
18 67 18 727 0 665 -1 701 -19 727 -10 16 -34 32 -55 38 -50 14 -1603 14
-1653 0 -20 -6 -46 -22 -58 -37 -19 -24 -20 -39 -20 -239 l0 -214 -120 0 -120
0 0 515 c0 377 -3 521 -12 540 -25 55 -21 55 -612 55 l-544 0 -4 168 c-3 190
-11 214 -77 232 -46 13 -1333 12 -1378 -1z m1404 -41 c19 -18 23 -32 23 -80
l0 -58 -740 0 -740 0 0 48 c0 29 8 59 20 80 l20 32 697 0 697 0 23 -22z m23
-876 c0 -704 0 -719 -20 -740 -11 -11 -35 -24 -52 -27 -18 -3 -331 -5 -695 -3
l-662 3 -23 23 -23 23 -3 719 -2 720 740 0 740 0 0 -718z m-1500 408 l0 -90
-219 0 c-186 0 -222 -2 -235 -16 -14 -14 -16 -91 -16 -700 l0 -684 -90 0 -90
0 0 763 c1 583 3 766 13 778 28 36 48 38 345 39 l292 0 0 -90z m2651 61 l29
-29 0 -516 0 -516 -95 0 -95 0 0 439 c0 386 -2 441 -16 455 -14 14 -71 16
-480 16 l-464 0 0 90 0 90 546 0 546 0 29 -29z m-2651 -676 c0 -356 3 -511 11
-529 26 -57 17 -56 751 -56 621 0 676 1 708 18 24 11 39 28 47 52 9 25 12 173
12 528 l1 492 458 0 c343 0 461 -3 470 -12 9 -9 12 -122 12 -445 l0 -433 -329
0 -329 0 -31 -26 -31 -26 0 -364 0 -364 -1028 0 -1029 0 -6 118 c-7 114 -8
118 -37 145 -21 18 -41 27 -65 27 l-35 0 0 680 c0 636 1 680 18 689 10 6 102
11 225 11 l207 0 0 -505z m4698 65 c18 -17 22 -32 22 -80 l0 -60 -880 0 -880
0 0 45 c0 48 20 99 42 108 7 3 387 6 844 6 822 1 830 1 852 -19z m22 -800 l0
-629 -22 -21 c-22 -20 -30 -20 -849 -20 -455 0 -835 3 -844 6 -44 17 -45 28
-45 679 l0 615 880 0 880 0 0 -630z m-1780 265 l0 -65 -529 0 c-468 0 -531 -2
-545 -16 -14 -14 -16 -87 -16 -654 0 -567 2 -640 16 -654 14 -14 127 -16 1098
-16 828 0 1085 3 1094 12 9 9 12 72 12 220 l0 208 45 0 46 0 -3 -263 c-2 -206
-6 -268 -17 -280 -12 -16 -107 -17 -1177 -17 l-1163 0 -15 22 c-14 20 -16 110
-16 771 l0 748 25 24 24 25 561 0 560 0 0 -65z m-4078 -72 c126 -46 240 -157
290 -281 33 -83 33 -271 0 -354 -108 -269 -423 -384 -686 -251 -150 76 -256
253 -256 428 0 214 136 396 349 467 75 24 222 20 303 -9z m4078 -421 c0 -351
2 -400 16 -421 36 -50 46 -51 589 -51 l505 0 -2 -207 -3 -208 -1080 0 -1080 0
-3 643 -2 642 530 0 530 0 0 -398z m-3299 39 c10 -13 19 -38 19 -57 l0 -34
-225 0 -225 0 0 25 0 25 145 0 c195 0 193 19 -2 22 -146 3 -148 3 -151 26 l-4
23 212 -3 c209 -3 212 -3 231 -27z m19 -566 l0 -455 -310 0 -310 0 0 280 0
280 47 58 c51 63 98 156 108 217 14 82 -9 75 241 75 l224 0 0 -455z m2090 80
l0 -215 -1030 0 -1030 0 0 215 0 215 1030 0 1030 0 0 -215z m-493 -385 c6 -80
12 -169 12 -197 l1 -53 -255 0 -255 0 0 41 c0 53 20 330 26 347 3 10 54 12
231 10 l228 -3 12 -145z m-1597 -240 c0 -103 9 -100 -314 -100 -273 0 -275 0
-290 22 -10 14 -16 44 -16 80 l0 58 310 0 310 0 0 -60z m3130 -15 c31 -33 78
-45 170 -45 100 1 150 13 175 44 l21 26 582 0 582 0 0 -39 c0 -77 122 -71
-1359 -71 -1153 0 -1330 2 -1341 15 -6 8 -14 32 -17 55 l-6 40 585 0 585 0 23
-25z m315 5 c-16 -18 -31 -20 -140 -20 -107 0 -126 2 -146 20 l-24 19 164 1
c163 0 164 0 146 -20z m-1635 -39 c28 -53 48 -51 -455 -51 -503 0 -483 -2
-455 51 10 18 26 19 455 19 429 0 445 -1 455 -19z"/>
<path d="M3160 3194 c-11 -12 -10 -18 3 -32 16 -15 18 -15 34 0 13 14 14 20 3
32 -7 9 -16 16 -20 16 -4 0 -13 -7 -20 -16z"/>
<path d="M3253 3194 c-3 -8 2 -23 11 -32 15 -15 17 -15 33 0 13 14 14 20 3 32
-16 20 -39 20 -47 0z"/>
<path d="M3357 3204 c-13 -13 -7 -42 10 -48 21 -8 36 6 31 30 -3 19 -29 30
-41 18z"/>
<path d="M3225 2800 c3 -5 17 -10 31 -10 13 0 24 5 24 10 0 6 -14 10 -31 10
-17 0 -28 -4 -24 -10z"/>
<path d="M3320 2800 c0 -5 25 -10 55 -10 30 0 55 5 55 10 0 6 -25 10 -55 10
-30 0 -55 -4 -55 -10z"/>
<path d="M3470 2800 c0 -5 25 -10 55 -10 30 0 55 5 55 10 0 6 -25 10 -55 10
-30 0 -55 -4 -55 -10z"/>
<path d="M3620 2800 c0 -6 37 -10 90 -10 53 0 90 4 90 10 0 6 -37 10 -90 10
-53 0 -90 -4 -90 -10z"/>
<path d="M3840 2800 c0 -6 50 -10 130 -10 80 0 130 4 130 10 0 6 -50 10 -130
10 -80 0 -130 -4 -130 -10z"/>
<path d="M3230 2670 c0 -5 11 -10 25 -10 14 0 25 5 25 10 0 6 -11 10 -25 10
-14 0 -25 -4 -25 -10z"/>
<path d="M3320 2670 c0 -6 43 -10 109 -10 63 0 112 4 116 10 4 6 -35 10 -109
10 -71 0 -116 -4 -116 -10z"/>
<path d="M3585 2670 c4 -6 80 -10 196 -10 119 0 189 4 189 10 0 6 -72 10 -196
10 -127 0 -193 -3 -189 -10z"/>
<path d="M4010 2670 c0 -6 32 -10 75 -10 43 0 75 4 75 10 0 6 -32 10 -75 10
-43 0 -75 -4 -75 -10z"/>
<path d="M3225 2540 c3 -5 17 -10 31 -10 13 0 24 5 24 10 0 6 -14 10 -31 10
-17 0 -28 -4 -24 -10z"/>
<path d="M3320 2540 c0 -6 33 -10 80 -10 47 0 80 4 80 10 0 6 -33 10 -80 10
-47 0 -80 -4 -80 -10z"/>
<path d="M3520 2540 c0 -6 33 -10 80 -10 47 0 80 4 80 10 0 6 -33 10 -80 10
-47 0 -80 -4 -80 -10z"/>
<path d="M3710 2540 c0 -5 23 -10 50 -10 28 0 50 5 50 10 0 6 -22 10 -50 10
-27 0 -50 -4 -50 -10z"/>
<path d="M3230 2410 c0 -5 11 -10 25 -10 14 0 25 5 25 10 0 6 -11 10 -25 10
-14 0 -25 -4 -25 -10z"/>
<path d="M3320 2410 c0 -6 60 -10 160 -10 100 0 160 4 160 10 0 6 -60 10 -160
10 -100 0 -160 -4 -160 -10z"/>
<path d="M3680 2410 c0 -6 43 -10 110 -10 67 0 110 4 110 10 0 6 -43 10 -110
10 -67 0 -110 -4 -110 -10z"/>
<path d="M3225 2280 c3 -5 17 -10 31 -10 13 0 24 5 24 10 0 6 -14 10 -31 10
-17 0 -28 -4 -24 -10z"/>
<path d="M3320 2280 c0 -6 60 -10 160 -10 100 0 160 4 160 10 0 6 -60 10 -160
10 -100 0 -160 -4 -160 -10z"/>
<path d="M3680 2280 c0 -6 77 -10 210 -10 133 0 210 4 210 10 0 6 -77 10 -210
10 -133 0 -210 -4 -210 -10z"/>
<path d="M3230 2150 c0 -5 11 -10 25 -10 14 0 25 5 25 10 0 6 -11 10 -25 10
-14 0 -25 -4 -25 -10z"/>
<path d="M3320 2150 c0 -6 43 -10 109 -10 63 0 112 4 116 10 4 6 -35 10 -109
10 -71 0 -116 -4 -116 -10z"/>
<path d="M3585 2150 c4 -6 53 -10 116 -10 66 0 109 4 109 10 0 6 -45 10 -116
10 -74 0 -113 -4 -109 -10z"/>
<path d="M3845 2150 c3 -5 33 -10 66 -10 33 0 59 4 59 10 0 6 -29 10 -66 10
-41 0 -63 -4 -59 -10z"/>
<path d="M3225 2020 c3 -5 17 -10 31 -10 13 0 24 5 24 10 0 6 -14 10 -31 10
-17 0 -28 -4 -24 -10z"/>
<path d="M3320 2020 c0 -6 77 -10 210 -10 133 0 210 4 210 10 0 6 -77 10 -210
10 -133 0 -210 -4 -210 -10z"/>
<path d="M3230 1890 c0 -5 11 -10 25 -10 14 0 25 5 25 10 0 6 -11 10 -25 10
-14 0 -25 -4 -25 -10z"/>
<path d="M3320 1890 c0 -6 38 -10 95 -10 57 0 95 4 95 10 0 6 -38 10 -95 10
-57 0 -95 -4 -95 -10z"/>
<path d="M6100 2174 c-11 -12 -10 -18 3 -32 16 -15 18 -15 34 0 13 14 14 20 3
32 -7 9 -16 16 -20 16 -4 0 -13 -7 -20 -16z"/>
<path d="M6193 2174 c-3 -8 2 -23 11 -32 15 -15 17 -15 33 0 13 14 14 20 3 32
-16 20 -39 20 -47 0z"/>
<path d="M6297 2184 c-13 -13 -7 -42 10 -48 21 -8 36 6 31 30 -3 19 -29 30
-41 18z"/>
<path d="M6307 1802 c-13 -14 -17 -38 -17 -100 0 -101 11 -112 110 -112 99 0
110 11 110 115 0 109 -6 115 -109 115 -63 0 -81 -4 -94 -18z m178 -97 l0 -80
-85 0 -85 0 -3 69 c-2 38 -1 75 2 83 4 11 25 13 88 11 l83 -3 0 -80z"/>
<path d="M7040 1770 c0 -14 -11 -22 -42 -30 -115 -31 -219 -136 -243 -247 -5
-23 -12 -33 -26 -33 -16 0 -19 -7 -19 -50 0 -41 3 -50 18 -50 12 0 23 -16 36
-52 37 -105 109 -177 214 -214 36 -13 52 -24 52 -36 0 -15 9 -18 55 -18 48 0
55 2 55 20 0 11 6 20 13 20 6 0 39 13 72 29 55 26 129 93 162 147 10 16 12 7
12 -53 1 -40 -3 -73 -8 -73 -15 0 -21 -30 -11 -51 21 -38 79 -12 65 31 -3 11
-11 20 -16 20 -5 0 -9 51 -9 115 0 108 1 115 20 115 17 0 20 7 20 50 0 43 -3
50 -20 50 -19 0 -20 7 -20 107 0 86 3 110 17 125 22 24 7 53 -27 53 -34 0 -49
-29 -27 -53 12 -13 17 -36 17 -82 l0 -64 -28 45 c-49 77 -118 126 -219 155 -7
2 -13 13 -13 24 0 17 -6 20 -50 20 -43 0 -50 -3 -50 -20z m80 -30 c0 -27 -3
-30 -30 -30 -27 0 -30 3 -30 30 0 27 3 30 30 30 27 0 30 -3 30 -30z m-80 -35
c0 -11 12 -15 50 -15 39 0 50 4 50 16 0 30 93 -10 156 -68 67 -61 119 -178 79
-178 -11 0 -15 -12 -15 -50 0 -38 4 -50 15 -50 21 0 19 -17 -9 -75 -34 -73
-69 -110 -138 -144 -68 -35 -88 -38 -88 -16 0 12 -13 15 -55 15 -42 0 -55 -3
-55 -15 0 -21 -22 -19 -78 7 -60 29 -121 90 -150 150 -26 56 -28 78 -7 78 11
0 15 12 15 50 0 38 -4 50 -15 50 -59 0 53 182 140 227 62 33 105 40 105 18z
m-250 -295 c0 -27 -3 -30 -30 -30 -27 0 -30 3 -30 30 0 27 3 30 30 30 27 0 30
-3 30 -30z m640 0 c0 -25 -4 -30 -25 -30 -21 0 -25 5 -25 30 0 25 4 30 25 30
21 0 25 -5 25 -30z m-320 -320 c0 -25 -4 -30 -25 -30 -21 0 -25 5 -25 30 0 25
4 30 25 30 21 0 25 -5 25 -30z"/>
<path d="M6320 1517 c-23 -12 -25 -18 -28 -99 -4 -112 2 -118 108 -118 104 0
110 6 110 115 0 75 -2 85 -22 99 -28 20 -132 21 -168 3z m168 -95 c2 -46 -2
-79 -9 -88 -15 -18 -140 -19 -157 -2 -13 13 -17 150 -5 162 4 4 43 5 88 4 l80
-3 3 -73z"/>
<path d="M6302 1218 c-7 -7 -12 -44 -12 -98 0 -54 5 -91 12 -98 16 -16 180
-16 196 0 7 7 12 44 12 98 0 54 -5 91 -12 98 -7 7 -44 12 -98 12 -54 0 -91 -5
-98 -12z m183 -98 l0 -85 -85 0 -85 0 -3 74 c-2 41 -1 80 2 88 4 11 25 13 88
11 l83 -3 0 -85z"/>
<path d="M1715 1159 c-60 -180 -72 -231 -46 -203 10 10 131 373 131 392 0 6
-4 12 -9 12 -5 0 -39 -90 -76 -201z"/>
<path d="M1510 1221 l-75 -68 54 -49 c78 -70 100 -86 112 -82 7 2 -18 31 -55
65 -36 33 -66 64 -65 69 0 5 29 34 65 64 35 30 64 58 64 63 0 20 -32 0 -100
-62z"/>
<path d="M1850 1281 c0 -5 29 -36 66 -69 l65 -59 -65 -57 c-62 -55 -78 -76
-56 -76 15 0 145 119 145 134 0 13 -133 136 -147 136 -4 0 -8 -4 -8 -9z"/>
<path d="M2355 740 c-3 -5 0 -13 8 -15 24 -10 212 -1 212 10 0 14 -211 19
-220 5z"/>
<path d="M2197 702 c-10 -10 -17 -28 -17 -40 0 -28 34 -62 60 -62 27 0 60 35
60 63 0 50 -70 76 -103 39z m73 -23 c9 -15 8 -24 -1 -35 -18 -21 -57 -18 -64
6 -14 44 44 69 65 29z"/>
<path d="M2355 660 c3 -5 40 -10 81 -10 43 0 74 4 74 10 0 6 -34 10 -81 10
-51 0 -78 -4 -74 -10z"/>
<path d="M2360 590 c0 -5 20 -10 45 -10 25 0 45 5 45 10 0 6 -20 10 -45 10
-25 0 -45 -4 -45 -10z"/>
<path d="M3995 775 c-30 -30 -31 -54 -4 -89 29 -36 80 -36 109 1 55 70 -42
151 -105 88z m76 -5 c29 -16 26 -67 -5 -81 -34 -16 -66 3 -66 41 0 41 33 60
71 40z"/>
<path d="M2356 124 c-12 -12 -13 -20 -6 -35 12 -21 40 -25 58 -7 16 16 15 23
-4 42 -19 20 -29 20 -48 0z"/>
<path d="M8405 678 c-11 -6 -24 -17 -30 -25 -7 -9 -45 -13 -125 -15 l-115 -3
-3 -294 c-2 -251 0 -297 13 -318 l15 -23 270 0 c267 0 269 0 284 22 9 12 16
37 16 54 0 28 5 33 45 48 92 36 149 143 125 239 -16 60 -69 121 -125 142 l-44
17 -3 57 -3 56 -104 3 c-94 2 -107 5 -133 27 -32 27 -53 30 -83 13z m70 -28
c4 -6 -10 -10 -35 -10 -25 0 -39 4 -35 10 3 6 19 10 35 10 16 0 32 -4 35 -10z
m10 -110 c0 -75 0 -75 -28 -78 -45 -5 -60 -40 -55 -128 4 -92 16 -104 100
-104 84 0 98 17 98 119 0 90 -12 111 -61 111 l-29 0 0 80 0 81 98 -3 97 -3 3
-278 2 -278 -24 -24 -25 -25 -226 0 c-222 0 -258 4 -277 34 -4 6 -8 138 -8
294 l0 282 168 -2 167 -3 0 -75z m316 -73 c104 -70 104 -234 0 -304 -46 -31
-71 -30 -71 2 0 17 9 29 30 40 35 18 62 66 62 110 0 44 -27 92 -62 110 -21 11
-30 23 -30 40 0 32 25 33 71 2z m-233 -119 l3 -88 -71 0 -70 0 0 83 c0 46 3
87 7 91 4 4 34 6 68 4 l60 -3 3 -87z m206 31 c17 -19 26 -43 26 -64 0 -32 -40
-95 -61 -95 -5 0 -9 43 -9 95 0 52 4 95 9 95 5 0 21 -14 35 -31z"/>
<path d="M920 384 c-78 -34 -123 -100 -124 -184 0 -74 31 -132 91 -171 l47
-29 439 0 438 0 -3 42 c-3 39 -6 43 -38 51 -92 23 -115 47 -113 115 1 40 35
78 78 87 82 17 76 12 73 58 l-3 42 -425 2 c-362 2 -430 0 -460 -13z m870 -24
c0 -20 -7 -20 -417 -20 -399 0 -419 -1 -451 -20 -68 -41 -89 -117 -53 -188 38
-73 28 -72 500 -72 414 0 421 0 421 -20 0 -20 -7 -20 -421 -20 -416 0 -422 0
-461 22 -132 75 -115 272 28 323 31 11 127 14 447 15 400 0 407 0 407 -20z
m-106 -62 c-16 -12 -33 -28 -37 -35 -6 -10 -81 -13 -342 -13 -217 0 -335 -4
-335 -10 0 -6 117 -10 330 -10 l330 0 0 -30 0 -30 -330 0 c-213 0 -330 -4
-330 -10 0 -6 118 -10 335 -10 323 0 335 -1 345 -20 6 -11 23 -26 38 -34 24
-14 -11 -15 -349 -16 -375 0 -376 0 -410 23 -37 25 -60 77 -52 119 6 32 56 85
86 91 12 2 186 5 386 6 l364 1 -29 -22z"/>
<path d="M7685 194 c-66 -34 -124 -114 -125 -171 l0 -23 209 0 208 0 -7 38
c-19 106 -99 172 -207 172 -26 0 -61 -7 -78 -16z m78 -16 c4 -10 8 -10 15 1 8
11 16 11 45 2 50 -17 84 -46 107 -92 37 -71 41 -69 -160 -69 -175 0 -180 1
-180 20 0 48 49 108 110 134 43 19 57 20 63 4z"/>
</g>
</svg>
