<?xml version="1.0" standalone="no"?>
<!DOCTYPE svg PUBLIC "-//W3C//DTD SVG 20010904//EN"
 "http://www.w3.org/TR/2001/REC-SVG-20010904/DTD/svg10.dtd">
<svg version="1.0" xmlns="http://www.w3.org/2000/svg"
 width="900.000000pt" height="900.000000pt" viewBox="0 0 900.000000 900.000000"
 preserveAspectRatio="xMidYMid meet">

<g transform="translate(0.000000,900.000000) scale(0.100000,-0.100000)"
fill="#008753" stroke="none">
<path d="M1286 8990 c-74 -19 -168 -72 -254 -144 -104 -88 -420 -407 -519
-526 -282 -338 -418 -666 -490 -1180 -24 -173 -24 -601 0 -785 46 -348 105
-602 212 -922 221 -660 563 -1286 1066 -1953 648 -859 1569 -1759 2388 -2334
918 -644 1776 -1006 2666 -1122 185 -25 604 -25 775 -1 493 69 863 220 1180
482 115 95 475 453 553 551 103 128 143 256 134 424 -8 147 -34 213 -121 318
-186 221 -1393 1435 -1624 1633 -80 68 -144 113 -201 142 l-85 42 -140 -1
c-241 -2 -278 -24 -642 -388 -348 -349 -371 -385 -420 -664 -26 -148 -39 -187
-70 -213 -27 -22 -249 -19 -344 5 -173 44 -364 132 -575 264 -131 81 -419 294
-530 391 -200 175 -997 972 -1206 1206 -111 125 -273 336 -378 495 -229 346
-331 606 -331 846 0 108 12 149 51 169 15 8 94 27 175 41 275 48 328 80 638
384 214 211 323 335 364 415 72 143 78 364 13 493 -66 132 -278 359 -987 1062
-496 491 -783 764 -852 810 -24 16 -76 36 -115 45 -85 20 -276 28 -331 15z"/>
</g>
</svg>
