<?xml version="1.0" standalone="no"?>
<!DOCTYPE svg PUBLIC "-//W3C//DTD SVG 20010904//EN"
 "http://www.w3.org/TR/2001/REC-SVG-20010904/DTD/svg10.dtd">
<svg version="1.0" xmlns="http://www.w3.org/2000/svg"
 width="512.000000pt" height="512.000000pt" viewBox="0 0 512.000000 512.000000"
 preserveAspectRatio="xMidYMid meet">

<g transform="translate(0.000000,512.000000) scale(0.100000,-0.100000)"
fill="#000000" stroke="none">
<path d="M3515 4853 l-1040 -267 -160 -265 -160 -266 -311 -3 -312 -2 -761
-741 c-418 -407 -761 -744 -761 -749 0 -5 343 -342 761 -749 l761 -741 312 -2
311 -3 149 -266 149 -266 1026 -261 c564 -144 1035 -264 1046 -267 19 -5 39
62 297 1007 l277 1013 -150 268 -149 268 157 262 c86 144 157 269 157 277 0
23 -548 2020 -554 2019 -3 0 -473 -120 -1045 -266z m293 -493 c-1 -5 -205
-349 -453 -764 l-450 -755 -925 0 -925 -1 60 57 c138 131 627 605 855 829
l245 240 265 68 c796 203 1316 335 1323 335 5 1 7 -3 5 -9z m667 -1052 l218
-748 -218 -747 c-120 -412 -221 -757 -225 -767 -5 -16 -16 -4 -56 65 -28 46
-234 391 -458 767 l-408 682 408 683 c224 375 430 720 458 766 40 69 51 81 56
65 4 -10 105 -355 225 -766z m-1116 -1769 c249 -418 452 -762 450 -764 -2 -2
-224 53 -494 121 -269 68 -626 159 -793 201 l-303 76 -570 559 c-313 308 -569
562 -569 564 0 2 411 4 913 4 l912 0 454 -761z"/>
</g>
</svg>
