<?xml version="1.0" standalone="no"?>
<!DOCTYPE svg PUBLIC "-//W3C//DTD SVG 20010904//EN"
 "http://www.w3.org/TR/2001/REC-SVG-20010904/DTD/svg10.dtd">
<svg version="1.0" xmlns="http://www.w3.org/2000/svg"
 width="512.000000pt" height="512.000000pt" viewBox="0 0 512.000000 512.000000"
 preserveAspectRatio="xMidYMid meet">

<g transform="translate(0.000000,512.000000) scale(0.100000,-0.100000)"
fill="#000000" stroke="none">
<path d="M225 3958 c-46 -27 -44 40 -45 -1576 l0 -1533 25 -24 24 -25 1166 0
1165 0 0 1585 0 1585 -1157 0 c-852 -1 -1163 -4 -1178 -12z m365 -274 c11 -11
23 -37 27 -57 5 -31 1 -40 -25 -67 -28 -28 -35 -30 -105 -30 -59 0 -80 4 -100
20 -48 38 -42 115 12 146 40 22 165 15 191 -12z m1749 11 c36 -18 54 -64 40
-104 -22 -64 15 -61 -792 -61 -721 0 -735 0 -760 20 -47 37 -44 101 7 142 19
16 74 18 749 18 621 0 732 -2 756 -15z m-1572 -368 c35 -35 35 -93 -2 -124
-22 -20 -37 -23 -104 -23 -71 0 -81 2 -105 26 -28 29 -34 70 -15 105 29 55
178 65 226 16z m617 4 c19 -18 26 -35 26 -61 0 -47 -22 -77 -68 -90 -40 -11
-241 -14 -291 -4 -64 13 -100 81 -70 135 21 40 64 49 226 46 145 -2 153 -3
177 -26z m973 -3 c30 -30 36 -86 11 -115 -32 -39 -67 -43 -375 -43 -312 0
-362 6 -388 43 -31 44 -11 117 39 137 11 5 171 8 353 7 l333 -2 27 -27z
m-1592 -353 c37 -36 37 -86 0 -124 -25 -26 -91 -38 -150 -27 -81 15 -112 96
-59 150 24 24 34 26 106 26 70 0 82 -3 103 -25z m620 0 c35 -34 34 -93 -1
-126 -24 -23 -33 -24 -176 -27 -160 -4 -197 3 -223 42 -24 33 -19 80 11 110
l27 26 169 0 c166 0 169 0 193 -25z m970 2 c38 -32 39 -88 2 -125 l-27 -27
-344 0 -344 0 -26 24 c-35 33 -36 92 -1 126 l24 25 345 0 c345 0 345 0 371
-23z m-1768 -351 c39 -34 39 -98 0 -132 -23 -20 -39 -24 -92 -24 -83 0 -111
12 -132 55 -16 33 -16 37 0 70 21 44 44 54 129 54 57 1 71 -3 95 -23z m1758 8
c32 -21 47 -66 34 -103 -22 -64 15 -61 -791 -61 -804 0 -762 -3 -788 60 -10
24 -10 36 0 60 26 63 -16 60 788 60 648 0 735 -2 757 -16z m-1786 -345 c32
-11 61 -52 61 -88 0 -11 -12 -33 -26 -50 -25 -30 -29 -31 -104 -31 -62 0 -82
4 -103 20 -51 40 -42 120 17 146 38 16 112 18 155 3z m1798 -21 c37 -37 36
-93 -2 -125 l-26 -23 -743 0 -743 0 -20 23 c-30 32 -37 64 -22 99 24 59 6 58
801 55 l728 -2 27 -27z m-1015 -328 c46 -13 68 -43 68 -90 0 -26 -7 -43 -26
-61 -24 -23 -34 -24 -161 -27 -161 -4 -197 1 -229 33 -46 46 -17 135 49 148
46 9 264 6 299 -3z m981 -3 c43 -19 59 -40 60 -82 1 -26 -6 -43 -26 -63 l-27
-27 -346 0 -346 0 -24 28 c-45 52 -25 128 39 146 18 5 168 10 335 10 233 1
310 -2 335 -12z m-1558 -20 c36 -31 37 -89 3 -124 -47 -47 -187 -41 -223 10
-24 34 -19 80 11 111 24 24 34 26 105 26 67 0 82 -3 104 -23z m-10 -343 c53
-35 50 -120 -6 -149 -16 -9 -56 -15 -94 -15 -60 0 -69 3 -96 29 -20 20 -29 39
-29 61 0 22 9 41 29 61 27 27 35 29 101 29 47 0 79 -5 95 -16z m629 -9 c19
-18 26 -34 26 -62 -1 -81 -31 -93 -225 -93 l-157 0 -29 29 c-20 20 -29 39 -29
61 0 22 9 41 29 61 l29 29 165 0 c160 0 165 -1 191 -25z m958 14 c31 -17 50
-71 37 -108 -21 -59 -34 -61 -394 -61 -333 0 -354 2 -382 39 -22 29 -16 86 13
115 l27 26 339 0 c224 0 346 -4 360 -11z m-1783 -350 c33 -12 61 -52 61 -89 0
-12 -13 -35 -29 -51 -27 -27 -35 -29 -104 -29 -59 0 -80 4 -100 20 -51 40 -42
120 17 146 38 16 112 18 155 3z m1785 -10 c39 -31 49 -63 32 -104 -8 -18 -23
-38 -34 -44 -14 -8 -248 -11 -755 -11 -717 0 -735 0 -760 20 -31 25 -42 65
-26 102 24 59 -2 57 790 58 l726 0 27 -21z"/>
<path d="M2779 3777 c-43 -33 -49 -84 -15 -124 l24 -28 210 0 c209 0 211 0
236 24 35 33 35 83 1 116 -24 25 -24 25 -232 25 -148 -1 -213 -4 -224 -13z"/>
<path d="M3475 3765 c-34 -33 -34 -83 1 -116 25 -23 30 -24 214 -27 150 -3
195 0 224 12 60 25 71 92 24 136 -20 19 -35 20 -230 20 -208 0 -209 0 -233
-25z"/>
<path d="M4183 3768 c-30 -34 -34 -55 -19 -92 20 -49 53 -56 251 -56 226 0
255 11 255 94 0 25 -7 40 -26 55 -25 20 -39 21 -234 21 -202 0 -207 -1 -227
-22z"/>
</g>
</svg>
