<?xml version="1.0" standalone="no"?>
<!DOCTYPE svg PUBLIC "-//W3C//DTD SVG 20010904//EN"
 "http://www.w3.org/TR/2001/REC-SVG-20010904/DTD/svg10.dtd">
<svg version="1.0" xmlns="http://www.w3.org/2000/svg"
 width="1300.000000pt" height="1300.000000pt" viewBox="0 0 1300.000000 1300.000000"
 preserveAspectRatio="xMidYMid meet">

<g transform="translate(0.000000,1300.000000) scale(0.100000,-0.100000)"
fill="#000000" stroke="none">
<path d="M1940 9788 c0 -7 -1 -124 -3 -260 -1 -145 2 -244 7 -241 5 4 6 1 3
-5 -6 -8 -9 -1819 -7 -3933 l0 -135 33 3 c17 1 551 2 1185 3 l1152 0 -2 712
-3 713 -427 3 -428 2 0 75 0 75 430 0 430 0 0 41 c0 32 -4 42 -20 46 -11 3
-20 8 -21 12 -1 12 -1 116 0 129 1 6 10 12 21 12 18 0 20 7 20 80 l0 80 -299
0 -300 0 -3 33 c-2 17 -1 51 1 75 l3 42 297 0 297 0 0 179 c-1 99 -4 182 -8
186 -4 4 -138 7 -297 7 l-291 -1 0 79 0 79 300 -1 300 -1 43 46 c24 26 39 47
33 48 -6 0 -222 1 -481 2 l-470 2 -3 73 -3 72 551 0 550 0 0 -59 0 -58 40 -7
c22 -3 52 -3 65 0 23 6 25 11 25 65 l0 59 110 0 110 0 0 -66 0 -65 1764 3
c970 2 1767 6 1771 9 5 6 6 325 5 1772 l0 27 -1097 0 -1098 0 -390 -388 -390
-387 385 388 385 387 -1875 0 -1875 0 -115 -115 -115 -115 0 -1250 c0 -794 -4
-1250 -10 -1250 -5 0 13 -23 40 -52 42 -44 44 -47 10 -17 -22 18 -56 52 -75
74 -24 28 -26 33 -7 16 22 -20 27 -22 27 -8 0 9 0 555 0 1212 0 657 0 1209 0
1227 l0 31 -27 -24 c-24 -21 -23 -19 4 13 21 25 30 44 26 57 -3 13 -1 21 7 21
7 0 10 -7 6 -15 -11 -31 12 -12 114 90 l105 105 -103 0 c-82 0 -104 -3 -108
-15 -7 -18 -25 -20 -21 -2 1 9 -33 13 -140 15 -111 2 -143 0 -143 -10z m295
-93 c0 -36 -3 -65 -7 -65 -5 0 -8 29 -8 65 0 36 3 65 8 65 4 0 7 -29 7 -65z
m4636 28 c13 -16 12 -17 -3 -4 -10 7 -18 15 -18 17 0 8 8 3 21 -13z m80 -80
c13 -16 12 -17 -3 -4 -10 7 -18 15 -18 17 0 8 8 3 21 -13z m80 -80 c13 -16 12
-17 -3 -4 -10 7 -18 15 -18 17 0 8 8 3 21 -13z m-4871 -66 c0 -2 -10 -12 -22
-23 l-23 -19 19 23 c18 21 26 27 26 19z m4951 -14 c13 -16 12 -17 -3 -4 -10 7
-18 15 -18 17 0 8 8 3 21 -13z m-4971 -124 l0 -79 -55 0 -55 0 0 42 0 42 -37
-35 -38 -34 38 40 c26 29 37 50 37 72 0 29 3 32 38 35 71 6 72 4 72 -83z
m5051 44 c13 -16 12 -17 -3 -4 -10 7 -18 15 -18 17 0 8 8 3 21 -13z m80 -80
c13 -16 12 -17 -3 -4 -10 7 -18 15 -18 17 0 8 8 3 21 -13z m80 -80 c13 -16 12
-17 -3 -4 -10 7 -18 15 -18 17 0 8 8 3 21 -13z m-5211 -135 l0 -78 -55 0 -55
0 0 78 0 77 55 1 55 0 0 -78z m650 -3 l0 -75 -177 2 -178 3 -3 73 -3 72 181 0
180 0 0 -75z m4650 50 c13 -14 21 -25 18 -25 -2 0 -15 11 -28 25 -13 14 -21
25 -18 25 2 0 15 -11 28 -25z m-3575 -15 c10 -11 16 -20 13 -20 -3 0 -13 9
-23 20 -10 11 -16 20 -13 20 3 0 13 -9 23 -20z m-1725 -265 l0 -75 -55 0 -55
0 0 75 0 75 55 0 55 0 0 -75z m2392 8 c-1 -35 -1 -67 -1 -73 -1 -7 -188 -10
-541 -10 l-540 0 0 75 0 75 541 -2 541 -3 0 -62z m-2392 -265 l0 -78 -55 0
-55 0 0 78 0 77 55 0 55 1 0 -78z m1990 7 l0 -75 -550 0 -550 0 0 75 0 75 550
0 550 0 0 -75z m1930 0 l0 -75 -894 0 c-816 0 -895 1 -898 16 -2 9 -1 43 0 75
l4 59 894 0 894 0 0 -75z m-3920 -270 l0 -75 -55 0 -55 0 0 75 0 75 55 0 55 0
0 -75z m1990 -10 l0 -75 -550 0 -550 0 0 75 0 75 550 0 550 0 0 -75z m-1992
-247 l3 -78 -56 0 -55 0 0 78 0 77 53 0 52 0 3 -77z m2 -232 l0 -74 -45 -4
c-24 -2 -49 -2 -55 0 -6 2 -10 36 -10 78 l0 74 55 0 55 0 0 -74z m0 -256 l0
-80 -55 0 -55 0 0 80 0 80 55 0 55 0 0 -80z m0 -280 l0 -80 -52 0 -53 0 63
-61 c59 -58 75 -78 51 -63 -6 3 -10 -1 -9 -12 1 -11 2 -40 1 -66 l-1 -48 -55
0 -55 0 0 75 0 75 47 0 48 0 -95 97 c-52 54 -74 78 -47 53 l47 -44 0 77 0 77
55 0 55 0 0 -80z m1440 -55 l0 -75 -275 0 -275 0 0 75 0 75 275 0 275 0 0 -75z
m-60 -199 c0 -2 -8 -10 -17 -17 -16 -13 -17 -12 -4 4 13 16 21 21 21 13z m610
-111 l0 -75 -402 -2 c-222 -2 -469 -2 -550 0 l-148 3 0 74 0 75 550 0 550 0 0
-75z m-1900 -559 c0 -461 3 -606 11 -600 8 5 9 3 3 -7 -4 -8 -9 -25 -10 -39
-2 -36 -5 -38 -13 -10 -5 14 -6 28 -4 32 2 4 3 284 3 624 0 339 3 615 5 612 3
-3 5 -278 5 -612z m255 394 c88 -88 158 -160 155 -160 -3 0 -77 72 -165 160
-88 88 -158 160 -155 160 3 0 77 -72 165 -160z m-345 45 c0 -41 -3 -76 -7 -76
-5 -1 -29 -2 -56 -3 l-47 -1 0 78 0 77 55 0 55 0 0 -75z m1170 21 c0 -2 -8
-10 -17 -17 -16 -13 -17 -12 -4 4 13 16 21 21 21 13z m-70 -69 c0 -1 -37 -38
-82 -82 l-83 -80 80 83 c74 76 85 87 85 79z m-1100 -139 c0 -5 0 -39 0 -78 l0
-70 -55 0 -55 0 0 80 0 81 55 -3 c30 -2 55 -6 55 -10z m1105 -620 c484 -486
502 -506 103 -108 l-487 484 -38 -34 -38 -35 35 38 34 37 -104 105 c-58 58
-102 105 -100 105 3 0 271 -267 595 -592z m-1105 287 l0 -75 -55 0 -55 0 0 75
0 75 55 0 55 0 0 -75z m650 -70 l0 -74 -87 -3 c-48 -2 -129 -2 -181 0 l-93 3
3 72 3 72 162 1 c90 0 166 4 169 7 16 16 24 -10 24 -78z m-650 -187 l0 -78
-55 0 -55 0 0 78 0 77 55 1 55 0 0 -78z m0 -233 l0 -75 -55 0 -55 0 0 75 0 75
55 0 55 0 0 -75z m30 -109 c0 -2 -8 -10 -17 -17 -16 -13 -17 -12 -4 4 13 16
21 21 21 13z m57 -368 c-1 -68 -3 -13 -3 122 0 135 2 190 3 123 2 -68 2 -178
0 -245z m-87 221 l0 -79 -55 0 -55 0 0 41 c0 38 -1 40 -17 28 -17 -13 -17 -13
0 7 9 11 17 35 17 52 0 28 3 31 38 34 71 6 72 4 72 -83z"/>
<path d="M4546 7760 c-3 -14 -4 -1051 -3 -2305 l2 -2280 144 -3 c105 -2 147 1
159 10 12 10 14 10 8 1 -6 -10 123 -13 631 -13 l638 0 -325 328 -325 327 330
-327 330 -328 389 0 c356 0 391 1 410 18 20 16 20 16 7 0 -13 -17 57 -18 1433
-18 1155 0 1446 3 1440 13 -6 9 -4 9 7 -1 10 -9 152 -12 641 -12 l627 0 3 260
c2 143 1 260 -2 260 -2 0 -22 -17 -45 -37 l-40 -38 43 45 42 46 0 904 0 904
-27 30 -28 31 28 -24 27 -24 0 913 0 913 -27 -24 -28 -24 28 31 27 31 -2 206
-3 207 -3115 0 c-2086 0 -3116 -3 -3118 -10 -5 -14 -22 -12 -22 3 0 9 -35 12
-139 12 l-140 0 -5 -25z m314 -25 c0 -8 -4 -15 -10 -15 -7 0 -10 -435 -10
-1285 0 -850 3 -1285 10 -1285 14 0 12 -37 -2 -43 -10 -4 -10 -8 0 -15 16 -11
12 -64 -5 -70 -18 -5 -19 2693 -2 2704 8 4 7 9 -2 15 -11 7 -10 9 4 9 9 0 17
-7 17 -15z m1678 -1203 c12 12 22 20 22 17 0 -3 -10 -15 -23 -27 l-23 -21
-539 542 -540 542 540 -538 540 -537 23 22z m2588 956 l29 -33 -32 29 c-31 28
-38 36 -30 36 2 0 16 -15 33 -32z m-1616 9 c0 -2 -15 -16 -32 -33 l-33 -29 29
33 c28 30 36 37 36 29z m-2781 -73 l31 -6 0 -74 0 -74 -60 0 -60 0 0 80 0 80
29 0 c16 0 43 -3 60 -6z m2701 -7 c0 -2 -15 -16 -32 -33 l-33 -29 29 33 c28
30 36 37 36 29z m1791 -24 c13 -16 12 -17 -3 -4 -10 7 -18 15 -18 17 0 8 8 3
21 -13z m-1871 -56 c0 -2 -15 -16 -32 -33 l-33 -29 29 33 c28 30 36 37 36 29z
m1951 -24 c13 -16 12 -17 -3 -4 -10 7 -18 15 -18 17 0 8 8 3 21 -13z m-2031
-56 c0 -2 -15 -16 -32 -33 l-33 -29 29 33 c28 30 36 37 36 29z m3720 -1 c0 -2
-8 -10 -17 -17 -16 -13 -17 -12 -4 4 13 16 21 21 21 13z m-1609 -23 c13 -16
12 -17 -3 -4 -10 7 -18 15 -18 17 0 8 8 3 21 -13z m-2191 -56 c0 -2 -15 -16
-32 -33 l-33 -29 29 33 c28 30 36 37 36 29z m3720 -1 c0 -2 -8 -10 -17 -17
-16 -13 -17 -12 -4 4 13 16 21 21 21 13z m-6150 -86 l0 -80 -60 0 -60 0 0 80
0 80 60 0 60 0 0 -80z m4701 63 c13 -16 12 -17 -3 -4 -10 7 -18 15 -18 17 0 8
8 3 21 -13z m-2351 -56 c0 -2 -15 -16 -32 -33 l-33 -29 29 33 c28 30 36 37 36
29z m3720 -1 c0 -2 -8 -10 -17 -17 -16 -13 -17 -12 -4 4 13 16 21 21 21 13z
m-1289 -23 c13 -16 12 -17 -3 -4 -10 7 -18 15 -18 17 0 8 8 3 21 -13z m-2511
-56 c0 -2 -15 -16 -32 -33 l-33 -29 29 33 c28 30 36 37 36 29z m3720 -1 c0 -2
-8 -10 -17 -17 -16 -13 -17 -12 -4 4 13 16 21 21 21 13z m-1129 -23 c13 -16
12 -17 -3 -4 -10 7 -18 15 -18 17 0 8 8 3 21 -13z m-2671 -56 c0 -2 -15 -16
-32 -33 l-33 -29 29 33 c28 30 36 37 36 29z m3720 -1 c0 -2 -8 -10 -17 -17
-16 -13 -17 -12 -4 4 13 16 21 21 21 13z m-5910 -81 l0 -75 -60 0 -60 0 0 75
0 75 60 0 60 0 0 -75z m4941 58 c13 -16 12 -17 -3 -4 -10 7 -18 15 -18 17 0 8
8 3 21 -13z m-2831 -56 c0 -2 -15 -16 -32 -33 l-33 -29 29 33 c28 30 36 37 36
29z m3720 -1 c0 -2 -8 -10 -17 -17 -16 -13 -17 -12 -4 4 13 16 21 21 21 13z
m-809 -23 c13 -16 12 -17 -3 -4 -10 7 -18 15 -18 17 0 8 8 3 21 -13z m-1493
-190 c-27 -109 -79 -326 -117 -483 -85 -350 -173 -711 -246 -1015 -31 -126
-76 -313 -101 -415 -25 -102 -63 -261 -85 -355 -23 -93 -46 -190 -53 -215
l-12 -45 -179 -3 c-98 -1 -182 1 -185 5 -4 5 5 58 20 118 15 61 44 180 64 265
48 198 99 413 136 565 16 66 52 217 80 335 28 118 65 271 81 340 16 69 39 161
49 205 19 78 32 133 123 515 25 102 55 229 68 283 l23 97 191 0 191 0 -48
-197z m-1498 134 c0 -2 -15 -16 -32 -33 l-33 -29 29 33 c28 30 36 37 36 29z
m3720 -1 c0 -2 -8 -10 -17 -17 -16 -13 -17 -12 -4 4 13 16 21 21 21 13z m-649
-23 c13 -16 12 -17 -3 -4 -10 7 -18 15 -18 17 0 8 8 3 21 -13z m-3151 -56 c0
-2 -15 -16 -32 -33 l-33 -29 29 33 c28 30 36 37 36 29z m3720 -1 c0 -2 -8 -10
-17 -17 -16 -13 -17 -12 -4 4 13 16 21 21 21 13z m-489 -23 c13 -16 12 -17 -3
-4 -10 7 -18 15 -18 17 0 8 8 3 21 -13z m-5183 -75 l3 -78 -61 0 -60 0 0 80 0
81 58 -3 57 -3 3 -77z m1872 19 c0 -2 -15 -16 -32 -33 l-33 -29 29 33 c28 30
36 37 36 29z m3720 -1 c0 -2 -8 -10 -17 -17 -16 -13 -17 -12 -4 4 13 16 21 21
21 13z m-329 -23 c13 -16 12 -17 -3 -4 -10 7 -18 15 -18 17 0 8 8 3 21 -13z
m249 -56 c0 -2 -10 -12 -22 -23 l-23 -19 19 23 c18 21 26 27 26 19z m-169 -24
c13 -16 12 -17 -3 -4 -10 7 -18 15 -18 17 0 8 8 3 21 -13z m-3167 -138 c108
47 199 85 202 85 2 0 3 -115 2 -256 l-3 -255 -60 -24 c-33 -13 -204 -79 -380
-146 -176 -67 -401 -153 -500 -191 -99 -38 -205 -78 -235 -89 -96 -34 -110
-23 200 -145 210 -82 842 -332 928 -366 l52 -22 0 -254 c0 -199 -3 -253 -12
-249 -7 3 -51 21 -98 41 -47 19 -103 43 -125 54 -22 10 -385 169 -808 352
l-767 333 2 219 3 218 65 30 c36 16 175 77 310 135 135 59 256 116 270 128 13
12 19 14 11 5 -13 -18 -3 -14 319 126 96 42 230 100 298 129 l122 52 -97 100
-98 100 100 -98 101 -97 198 85z m-464 82 c0 -2 -15 -16 -32 -33 l-33 -29 29
33 c28 30 36 37 36 29z m2270 -102 c85 -37 216 -93 290 -125 671 -292 643
-281 664 -262 20 16 20 16 7 -1 -8 -9 -12 -19 -10 -22 4 -3 496 -217 582 -253
l37 -15 0 -217 0 -217 -432 -188 c-238 -103 -541 -235 -673 -293 -132 -57
-269 -117 -305 -132 -36 -15 -139 -60 -229 -99 -90 -39 -166 -71 -167 -71 -2
0 -4 114 -4 253 l0 253 53 21 c28 12 133 53 232 92 99 39 288 112 420 164 132
52 309 121 392 153 84 33 153 62 153 65 0 6 -379 154 -395 154 -5 0 -12 3 -15
6 -5 5 -126 54 -385 154 -66 26 -147 57 -180 70 -33 13 -108 42 -167 65 l-108
42 0 254 0 254 43 -20 c23 -10 112 -49 197 -85z m1446 86 c0 -11 -5 -17 -13
-14 -17 6 -17 20 0 26 6 3 12 6 12 6 1 1 1 -7 1 -18z m-5428 -113 l3 -78 -61
0 -60 0 0 80 0 81 58 -3 57 -3 3 -77z m1632 49 c0 -2 -15 -16 -32 -33 l-33
-29 29 33 c28 30 36 37 36 29z m3720 -1 c0 -2 -8 -10 -17 -17 -16 -13 -17 -12
-4 4 13 16 21 21 21 13z m145 -16 c10 -11 16 -20 13 -20 -3 0 -13 9 -23 20
-10 11 -16 20 -13 20 3 0 13 -9 23 -20z m-3945 -63 c0 -2 -15 -16 -32 -33
l-33 -29 29 33 c28 30 36 37 36 29z m3720 -1 c0 -2 -8 -10 -17 -17 -16 -13
-17 -12 -4 4 13 16 21 21 21 13z m311 -23 c13 -16 12 -17 -3 -4 -10 7 -18 15
-18 17 0 8 8 3 21 -13z m-4111 -56 c0 -2 -15 -16 -32 -33 l-33 -29 29 33 c28
30 36 37 36 29z m3720 -1 c0 -2 -8 -10 -17 -17 -16 -13 -17 -12 -4 4 13 16 21
21 21 13z m471 -23 c13 -16 12 -17 -3 -4 -17 13 -22 21 -14 21 2 0 10 -8 17
-17z m-5661 -118 l0 -75 -60 0 -60 0 0 75 0 75 60 0 60 0 0 -75z m1390 62 c0
-2 -15 -16 -32 -33 l-33 -29 29 33 c28 30 36 37 36 29z m3720 -1 c0 -2 -8 -10
-17 -17 -16 -13 -17 -12 -4 4 13 16 21 21 21 13z m631 -23 c13 -16 12 -17 -3
-4 -10 7 -18 15 -18 17 0 8 8 3 21 -13z m-4431 -57 c0 -2 -8 -10 -17 -17 -16
-13 -17 -12 -4 4 13 16 21 21 21 13z m3720 0 c0 -2 -8 -10 -17 -17 -16 -13
-17 -12 -4 4 13 16 21 21 21 13z m791 -23 c13 -16 12 -17 -3 -4 -10 7 -18 15
-18 17 0 8 8 3 21 -13z m80 -80 c13 -16 12 -17 -3 -4 -10 7 -18 15 -18 17 0 8
8 3 21 -13z m-3471 -120 c0 -8 -9 0 -50 45 l-45 47 48 -45 c26 -24 47 -45 47
-47z m-2430 2 l0 -75 -60 0 -60 0 0 75 0 75 60 0 60 0 0 -75z m5981 38 c13
-16 12 -17 -3 -4 -10 7 -18 15 -18 17 0 8 8 3 21 -13z m-3351 -238 c102 -102
183 -185 180 -185 -3 0 -88 83 -190 185 -102 102 -183 185 -180 185 3 0 88
-83 190 -185z m3431 158 c13 -16 12 -17 -3 -4 -10 7 -18 15 -18 17 0 8 8 3 21
-13z m80 -80 c13 -16 12 -17 -3 -4 -17 13 -22 21 -14 21 2 0 10 -8 17 -17z
m-6143 -130 l-3 -78 -57 -3 -58 -3 0 81 0 80 60 0 61 0 -3 -77z m6223 50 c13
-16 12 -17 -3 -4 -10 7 -18 15 -18 17 0 8 8 3 21 -13z m-1751 -137 c0 -2 -8
-10 -17 -17 -16 -13 -17 -12 -4 4 13 16 21 21 21 13z m-4472 -198 l3 -78 -61
0 -60 0 0 80 0 81 58 -3 57 -3 3 -77z m2 -253 l0 -75 -60 0 -60 0 0 75 0 75
60 0 60 0 0 -75z m82 -116 c-3 -60 0 -84 10 -90 10 -7 10 -9 0 -9 -8 0 -10 -8
-6 -25 4 -15 2 -25 -5 -25 -18 0 -15 230 3 230 1 0 0 -37 -2 -81z m-84 -122
l3 -77 -61 0 -60 0 0 78 0 77 58 0 57 0 3 -78z m102 -156 c-1 -47 -6 -86 -15
-101 -13 -23 -14 -14 -14 95 0 108 1 118 14 101 10 -14 15 -44 15 -95z m-100
-101 l0 -80 -60 0 -60 0 0 80 0 80 60 0 60 0 0 -80z m100 -44 c0 -2 -7 -9 -15
-16 -12 -10 -15 -10 -15 4 0 9 7 16 15 16 8 0 15 -2 15 -4z m-5 -253 c-3 -13
-10 -23 -15 -23 -15 0 -13 223 3 239 10 10 13 -9 15 -91 2 -57 0 -113 -3 -125z
m-95 27 l0 -80 -60 0 -60 0 0 80 0 80 60 0 60 0 0 -80z m98 -99 c2 -13 -1 -28
-7 -34 -17 -17 -15 -914 2 -920 7 -3 5 -6 -5 -6 -17 -1 -18 29 -18 495 0 392
3 495 13 492 6 -3 14 -15 15 -27z m-129 -77 l31 -6 0 -74 0 -74 -60 0 -60 0 0
80 0 80 29 0 c16 0 43 -3 60 -6z m26 -314 l0 -75 -57 -3 -58 -3 0 81 0 81 58
-3 57 -3 0 -75z m2755 -33 c0 -2 -15 -16 -32 -33 l-33 -29 29 33 c28 30 36 37
36 29z m-80 -80 c0 -2 -15 -16 -32 -33 l-33 -29 29 33 c28 30 36 37 36 29z
m-2670 -142 l0 -75 -60 0 -60 0 0 75 0 75 60 0 60 0 0 -75z m2590 62 c0 -2
-15 -16 -32 -33 l-33 -29 29 33 c28 30 36 37 36 29z m3610 -31 c0 -2 -8 -10
-17 -17 -16 -13 -17 -12 -4 4 13 16 21 21 21 13z m-3690 -49 c0 -2 -15 -16
-32 -33 l-33 -29 29 33 c28 30 36 37 36 29z m3610 -31 c0 -2 -8 -10 -17 -17
-16 -13 -17 -12 -4 4 13 16 21 21 21 13z m-3690 -49 c0 -2 -15 -16 -32 -33
l-33 -29 29 33 c28 30 36 37 36 29z m3610 -31 c0 -2 -8 -10 -17 -17 -16 -13
-17 -12 -4 4 13 16 21 21 21 13z m-3690 -49 c0 -2 -15 -16 -32 -33 l-33 -29
29 33 c28 30 36 37 36 29z m3610 -31 c0 -2 -8 -10 -17 -17 -16 -13 -17 -12 -4
4 13 16 21 21 21 13z m-3690 -49 c0 -2 -15 -16 -32 -33 l-33 -29 29 33 c28 30
36 37 36 29z m3610 -31 c0 -2 -8 -10 -17 -17 -16 -13 -17 -12 -4 4 13 16 21
21 21 13z m-5790 -40 c0 -3 -4 -8 -10 -11 -5 -3 -10 -1 -10 4 0 6 5 11 10 11
6 0 10 -2 10 -4z"/>
<path d="M4841 4184 c0 -11 3 -14 6 -6 3 7 2 16 -1 19 -3 4 -6 -2 -5 -13z"/>
</g>
</svg>
