<?xml version="1.0" standalone="no"?>
<!DOCTYPE svg PUBLIC "-//W3C//DTD SVG 20010904//EN"
 "http://www.w3.org/TR/2001/REC-SVG-20010904/DTD/svg10.dtd">
<svg version="1.0" xmlns="http://www.w3.org/2000/svg"
 width="222.000000pt" height="227.000000pt" viewBox="0 0 222.000000 227.000000"
 preserveAspectRatio="xMidYMid meet">

<g transform="translate(0.000000,227.000000) scale(0.100000,-0.100000)"
fill="#000000" stroke="none">
<path d="M578 1599 c-17 -9 -18 -35 -18 -314 l0 -305 550 0 550 0 0 303 c0
222 -3 306 -12 315 -16 16 -1044 17 -1070 1z m1042 -309 l0 -280 -510 0 -510
0 0 280 0 280 510 0 510 0 0 -280z"/>
<path d="M1210 1455 l0 -65 185 0 185 0 0 65 0 65 -185 0 -185 0 0 -65z"/>
<path d="M1092 898 c7 -19 38 -22 38 -4 0 10 -9 16 -21 16 -12 0 -19 -5 -17
-12z"/>
</g>
</svg>
