<?xml version="1.0" standalone="no"?>
<!DOCTYPE svg PUBLIC "-//W3C//DTD SVG 20010904//EN"
 "http://www.w3.org/TR/2001/REC-SVG-20010904/DTD/svg10.dtd">
<svg version="1.0" xmlns="http://www.w3.org/2000/svg"
 width="880.000000pt" height="561.000000pt" viewBox="0 0 880.000000 561.000000"
 preserveAspectRatio="xMidYMid meet">

<g transform="translate(0.000000,561.000000) scale(0.100000,-0.100000)"
fill="#000000" stroke="none">
<path d="M2060 4151 c0 -5 -11 -12 -25 -15 -14 -4 -25 -11 -25 -16 0 -6 -11
-10 -25 -10 -20 0 -25 -5 -25 -25 0 -14 -4 -25 -9 -25 -19 0 -31 -111 -30
-290 0 -102 0 -201 0 -220 -1 -50 -3 -912 -2 -930 7 -121 8 -207 3 -214 -3 -5
-4 -50 -2 -100 3 -105 4 -259 1 -396 -1 -52 -1 -228 0 -390 1 -162 -1 -305 -4
-318 -3 -12 -2 -22 4 -22 5 0 9 -13 9 -29 0 -16 7 -36 15 -45 8 -8 15 -24 15
-35 0 -12 6 -21 15 -21 8 0 15 -4 15 -10 0 -5 11 -12 25 -16 14 -3 25 -10 25
-15 0 -5 349 -9 825 -9 734 0 826 -2 832 -15 3 -9 -2 -24 -11 -34 -9 -10 -16
-23 -16 -29 0 -7 -11 -30 -25 -52 -14 -22 -25 -44 -25 -50 0 -5 -4 -10 -10
-10 -5 0 -12 -11 -16 -25 -3 -14 -10 -25 -15 -25 -5 0 -9 -9 -9 -20 0 -11 -7
-23 -15 -26 -8 -4 -15 -17 -15 -30 0 -13 -4 -24 -10 -24 -5 0 -10 -7 -10 -15
0 -13 -112 -15 -950 -15 -550 0 -950 -4 -950 -9 0 -5 -11 -12 -25 -15 -16 -4
-25 -13 -25 -26 0 -11 -4 -20 -10 -20 -5 0 -10 -20 -10 -45 0 -25 5 -45 10
-45 6 0 10 -9 10 -20 0 -12 7 -20 18 -20 9 0 25 -7 34 -14 23 -17 5173 -12
5253 5 40 9 55 18 68 41 18 31 23 88 8 88 -5 0 -12 11 -15 25 -4 15 -16 27
-31 31 -14 3 -25 10 -25 15 0 5 -398 9 -945 9 -833 0 -945 2 -945 15 0 8 -4
15 -10 15 -5 0 -12 11 -16 25 -3 14 -10 25 -15 25 -5 0 -9 11 -9 25 0 14 -4
25 -10 25 -5 0 -17 17 -27 38 -9 20 -23 43 -30 50 -7 7 -13 19 -13 27 0 7 -3
15 -7 17 -13 5 -43 68 -43 89 0 19 18 19 820 19 540 0 820 3 820 10 0 6 6 10
14 10 8 0 34 19 58 43 40 38 45 49 55 112 11 66 18 347 14 500 -4 117 -5 332
-4 485 1 80 1 260 0 400 -1 140 -1 305 1 365 5 213 -5 1040 -13 1079 -13 65
-42 106 -76 106 l-29 0 0 -1375 0 -1375 -2214 0 c-2010 0 -2214 1 -2220 16 -8
20 -8 2648 0 2668 6 15 185 16 1931 16 l1925 0 29 29 c16 16 29 34 29 40 0 6
5 11 10 11 6 0 10 5 10 10 0 7 -658 10 -1955 10 -1138 0 -1955 -4 -1955 -9z
m4098 -2969 c3 -23 -18 -52 -38 -52 -29 0 -53 54 -33 74 4 4 21 6 38 4 22 -2
31 -9 33 -26z m108 13 c11 -27 -5 -65 -27 -65 -39 0 -69 60 -36 73 25 11 58 6
63 -8z m107 -5 c9 -34 -3 -60 -28 -60 -24 0 -35 17 -35 56 0 20 5 24 29 24 20
0 30 -6 34 -20z"/>
</g>
</svg>
